#!OML:ASF X:\für Bonn\!DataBase\2005_08_10_Bjorn_Final\c3d\bjorn.ASF
:FULLY-SPECIFIED
:DEGREES
106
root 0.277357 18.9808 3.04577 -177.177 -0.41807 177.374
lowerback -13.7789 1.41871 -2.49483
upperback 8.85795 2.10956 -0.114678
thorax 17.9181 0.486692 1.82801
lowerneck 15.5179 -3.64723 2.05799
upperneck 16.6794 -7.57242 -0.510934
head 2.76465 -4.73175 -0.391945
rclavicle 4.91992e-015 3.18055e-015
rhumerus -1143.35 -44.534 1058.7
rradius 20.5162
rwrist -16.478
rhand -20.2946 -3.61504
rfingers 7.12502
rthumb 6.05542 -33.5085
lclavicle 4.91992e-015 3.18055e-015
lhumerus -46.1633 46.5357 25.1116
lradius 15.56
lwrist -7.74029
lhand -21.2682 16.9276
lfingers 7.12502
lthumb 5.11536 46.8459
rfemur -14.4997 -12.0204 10.9166
rtibia 34.5399
rfoot -22.3312 14.1194
rtoes -26.5956
lfemur -12.7464 3.14657 -18.6027
ltibia 31.9764
lfoot -15.9622 -10.0557
ltoes -1.63788
107
root 0.267107 18.9624 3.12023 -177.605 -0.318995 177.329
lowerback -13.1441 1.55431 -2.25982
upperback 9.22508 2.17109 -0.136497
thorax 17.971 0.516624 1.66521
lowerneck 13.4609 -3.61377 1.92299
upperneck 17.3562 -7.49131 -0.524655
head 3.33646 -4.64137 -0.466049
rclavicle -1.26228e-014 6.55989e-015
rhumerus -1142.34 -47.133 1056.68
rradius 19.4396
rwrist -11.2768
rhand -19.5356 -3.50976
rfingers 7.12502
rthumb 6.7881 -33.3809
lclavicle -1.26228e-014 6.55989e-015
lhumerus -46.219 50.0131 26.6208
lradius 14.2893
lwrist -12.5164
lhand -21.1652 15.7924
lfingers 7.12502
lthumb 5.21487 45.7082
rfemur -14.4738 -11.4994 10.8285
rtibia 34.8832
rfoot -22.4478 13.9649
rtoes -26.0718
lfemur -12.7662 2.99748 -18.713
ltibia 32.4948
lfoot -16.2622 -9.74119
ltoes -2.09296
108
root 0.256349 18.9462 3.1943 -177.974 -0.219126 177.304
lowerback -12.579 1.68284 -2.00576
upperback 9.56739 2.22221 -0.14962
thorax 18.0399 0.544252 1.5004
lowerneck 11.5742 -3.60241 1.81984
upperneck 17.8214 -7.39441 -0.582363
head 3.8211 -4.53844 -0.54733
rclavicle 1.39149e-015 1.39149e-015
rhumerus -1141.55 -50.1267 1055.34
rradius 18.2854
rwrist -5.36535
rhand -18.8893 -3.48866
rfingers 7.12502
rthumb 7.41204 -33.3388
lclavicle 1.39149e-015 1.39149e-015
lhumerus -46.6267 53.8969 27.5315
lradius 13.1706
lwrist -17.8065
lhand -20.9136 14.743
lfingers 7.12502
lthumb 5.45781 44.6527
rfemur -14.5039 -11.0398 10.7787
rtibia 35.1955
rfoot -22.48 13.8196
rtoes -25.5226
lfemur -12.8208 2.8997 -18.8051
ltibia 32.9405
lfoot -16.5237 -9.44297
ltoes -2.62356
109
root 0.24678 18.9351 3.26819 -178.325 -0.152731 177.281
lowerback -12.0002 1.80724 -1.77037
upperback 9.88755 2.27318 -0.168905
thorax 18.0716 0.571394 1.33778
lowerneck 9.87872 -3.62849 1.7613
upperneck 18.075 -7.31628 -0.618173
head 4.20933 -4.43909 -0.615097
rclavicle 8.94531e-015 -4.37326e-015
rhumerus -1140.23 -52.9288 1053.51
rradius 17.1633
rwrist 0.0643901
rhand -18.4598 -2.94032
rfingers 7.12502
rthumb 7.82653 -32.7755
lclavicle 8.94531e-015 -4.37326e-015
lhumerus -47.7814 58.3065 27.4405
lradius 12.1129
lwrist -24.1133
lhand -20.7987 13.9038
lfingers 7.12502
lthumb 5.56868 43.8107
rfemur -14.5484 -10.6282 10.7456
rtibia 35.4694
rfoot -22.4864 13.629
rtoes -25.0266
lfemur -12.8544 2.80563 -18.8889
ltibia 33.3122
lfoot -16.7445 -9.20957
ltoes -3.1068
110
root 0.236867 18.928 3.34206 -178.589 -0.140375 177.219
lowerback -11.4836 1.90577 -1.56646
upperback 10.1521 2.30785 -0.206225
thorax 18.0742 0.593192 1.16956
lowerneck 8.43414 -3.66039 1.77292
upperneck 18.1732 -7.22569 -0.699955
head 4.50065 -4.33486 -0.695679
rclavicle 8.74653e-015 6.36111e-015
rhumerus -1138.89 -55.9167 1051.91
rradius 15.9788
rwrist 5.65206
rhand -18.1063 -1.38486
rfingers 7.12502
rthumb 8.16777 -31.207
lclavicle 8.74653e-015 6.36111e-015
lhumerus -50.2595 63.1792 25.9075
lradius 11.114
lwrist -31.2038
lhand -21.23 13.3171
lfingers 7.12502
lthumb 5.15229 43.2344
rfemur -14.6375 -10.2666 10.6857
rtibia 35.6954
rfoot -22.4546 13.4098
rtoes -24.4235
lfemur -12.949 2.74071 -19.0096
ltibia 33.5918
lfoot -16.8828 -9.07049
ltoes -3.45041
111
root 0.228101 18.9247 3.41523 -178.751 -0.110729 177.139
lowerback -11.0605 1.98628 -1.42535
upperback 10.3673 2.34124 -0.241803
thorax 18.0737 0.610095 1.04149
lowerneck 7.34028 -3.6789 1.73994
upperneck 18.0353 -7.11579 -0.68622
head 4.65042 -4.2244 -0.716018
rclavicle -1.54058e-014 1.05356e-014
rhumerus -1137.73 -59.1852 1050.76
rradius 14.8188
rwrist 11.1603
rhand -17.7845 0.218129
rfingers 7.12502
rthumb 8.47829 -29.5917
lclavicle -1.54058e-014 1.05356e-014
lhumerus -56.1926 68.6691 20.8353
lradius 10.2283
lwrist -39.4702
lhand -22.1305 12.9782
lfingers 7.12502
lthumb 4.28277 42.9149
rfemur -14.7926 -9.92245 10.6248
rtibia 35.8634
rfoot -22.4462 13.2207
rtoes -23.8972
lfemur -13.1139 2.69617 -19.153
ltibia 33.7827
lfoot -16.984 -8.94133
ltoes -3.70101
112
root 0.218789 18.926 3.48704 -178.924 -0.10784 177.06
lowerback -10.6225 2.05778 -1.2742
upperback 10.5795 2.36074 -0.287536
thorax 18.0611 0.622818 0.891699
lowerneck 6.44476 -3.6894 1.73475
upperneck 17.8161 -7.00402 -0.635261
head 4.73613 -4.11543 -0.718335
rclavicle 2.34566e-014 -4.77083e-015
rhumerus -1137.2 -62.9186 1050.46
rradius 13.7014
rwrist 16.8518
rhand -17.24 1.81934
rfingers 7.12502
rthumb 9.00372 -27.9685
lclavicle 2.34566e-014 -4.77083e-015
lhumerus -45.6931 68.9148 33.3308
lradius 9.35931
lwrist -39.7588
lhand -23.1504 12.8031
lfingers 7.12502
lthumb 3.29787 42.7574
rfemur -14.887 -9.50329 10.5662
rtibia 35.97
rfoot -22.5715 12.9544
rtoes -23.6637
lfemur -13.2137 2.66751 -19.2948
ltibia 33.8853
lfoot -17.0907 -8.84608
ltoes -4.0951
